<?xml version="1.0" standalone="no"?>
<!DOCTYPE svg PUBLIC "-//W3C//DTD SVG 20010904//EN"
 "http://www.w3.org/TR/2001/REC-SVG-20010904/DTD/svg10.dtd">
<svg version="1.0" xmlns="http://www.w3.org/2000/svg"
 width="211.000000pt" height="161.000000pt" viewBox="0 0 211.000000 161.000000"
 preserveAspectRatio="xMidYMid meet">

<g>
<path d="M1530 1540 l0 -70 70 0 70 0 0 70 0 70 -70 0 -70 0 0 -70z"/>
<path d="M1930 1410 l0 -90 90 0 90 0 0 90 0 90 -90 0 -90 0 0 -90z"/>
<path d="M51 1344 c-49 -35 -51 -51 -51 -522 l0 -439 23 -34 c39 -58 43 -59
375 -59 l302 0 0 -145 0 -145 155 0 155 0 0 145 0 145 300 0 c332 0 356 4 384
59 13 24 16 68 16 225 l0 194 -32 28 -33 27 -5 -224 c-3 -123 -7 -225 -8 -226
-1 -2 -348 -3 -772 -3 -750 0 -770 0 -780 19 -14 27 -14 855 0 882 10 18 28
19 595 19 l584 0 -14 33 -13 32 -579 3 c-522 2 -581 1 -602 -14z"/>
<path d="M1350 1295 l0 -65 65 0 65 0 0 65 0 65 -65 0 -65 0 0 -65z"/>
<path d="M1650 1270 l0 -90 90 0 90 0 0 90 0 90 -90 0 -90 0 0 -90z"/>
<path d="M1910 1050 l0 -70 70 0 70 0 0 70 0 70 -70 0 -70 0 0 -70z"/>
<path d="M1500 1010 l0 -90 90 0 90 0 0 90 0 90 -90 0 -90 0 0 -90z"/>
</g>
</svg>
