<?xml version="1.0" encoding="iso-8859-1"?>
<!-- Generator: Adobe Illustrator 19.0.0, SVG Export Plug-In . SVG Version: 6.00 Build 0)  -->
<svg version="1.1" id="Layer_1" xmlns="http://www.w3.org/2000/svg" xmlns:xlink="http://www.w3.org/1999/xlink" x="0px" y="0px"
	 viewBox="0 0 50 50" style="enable-background:new 0 0 50 50;" xml:space="preserve">
<line x1="1.78" y1="24.98" x2="48.22" y2="24.98"/>
<g>
	<path d="M1.78,32.42l2.53,0c0.55,0,1.1-0.44,1.23-0.97L10.7,9.3c0.12-0.54,0.32-0.53,0.43,0l6.56,31.38
		c0.11,0.54,0.31,0.54,0.44,0.01l7.57-31.39c0.13-0.53,0.34-0.54,0.48,0l7.9,31.4c0.13,0.53,0.34,0.53,0.46-0.01l7.07-31.38
		c0.12-0.54,0.33-0.54,0.47-0.01l2.48,9.5c0.14,0.53,0.7,0.97,1.25,0.97l2.39,0"/>
</g>
</svg>
