<?xml version="1.0" standalone="no"?>
<!DOCTYPE svg PUBLIC "-//W3C//DTD SVG 20010904//EN"
 "http://www.w3.org/TR/2001/REC-SVG-20010904/DTD/svg10.dtd">
<svg version="1.0" xmlns="http://www.w3.org/2000/svg"
 width="170.000000pt" height="173.000000pt" viewBox="0 0 170.000000 173.000000"
 preserveAspectRatio="xMidYMid meet">

<g transform="translate(0.000000,173.000000) scale(0.100000,-0.100000)"
fill="#000000" stroke="none">
<path d="M979 1535 l-65 -66 -37 16 c-43 18 -68 19 -122 4 -33 -9 -85 -55
-293 -263 -140 -138 -262 -268 -273 -288 -22 -42 -25 -106 -7 -155 12 -33 11
-34 -50 -96 l-62 -63 45 -44 45 -44 63 62 63 62 59 -60 59 -60 -62 -63 -62
-63 45 -44 45 -44 63 62 63 62 59 -60 59 -60 -62 -63 -62 -63 48 -47 48 -47
63 64 63 63 36 -13 c49 -18 85 -17 130 1 42 18 533 500 559 550 19 35 21 122
3 154 -11 22 -7 28 49 85 34 34 61 66 61 72 0 12 -72 84 -85 84 -5 0 -37 -27
-70 -60 l-61 -60 -59 60 -59 60 64 65 64 65 -44 45 -44 45 -66 -65 -66 -65
-59 60 -59 60 64 65 65 65 -45 45 -45 45 -66 -65z m108 -408 c158 -158 253
-260 253 -272 0 -12 -95 -114 -253 -272 -193 -193 -258 -253 -277 -253 -19 0
-83 59 -272 248 -214 213 -248 252 -248 277 0 26 34 64 248 278 188 187 254
247 272 247 19 0 86 -61 277 -253z"/>
<path d="M687 1104 c-24 -13 -28 -20 -22 -41 8 -35 -19 -63 -61 -63 -31 0 -54
-20 -54 -48 0 -5 34 -23 76 -40 l76 -31 33 34 c26 29 40 35 72 35 67 0 114
-62 93 -126 -14 -41 -48 -64 -96 -64 -29 0 -44 7 -69 35 l-33 34 -76 -31 c-42
-17 -76 -35 -76 -40 0 -28 23 -48 54 -48 40 0 66 -26 66 -67 0 -22 6 -33 25
-41 36 -17 49 -15 70 8 23 26 67 26 90 0 21 -23 34 -25 70 -8 20 9 25 18 25
48 0 46 21 65 65 62 29 -3 34 0 48 35 15 37 14 39 -9 64 -13 14 -24 34 -24 44
0 10 11 30 24 44 23 25 24 27 9 64 -14 33 -19 37 -52 37 -47 0 -61 14 -61 60
0 30 -5 39 -25 48 -37 17 -58 15 -73 -8 -7 -12 -23 -20 -41 -20 -15 0 -36 9
-46 20 -21 24 -40 25 -78 4z"/>
</g>
</svg>
